<?xml version="1.0" encoding="utf-8"?>
<!-- Generator: Adobe Illustrator 17.0.0, SVG Export Plug-In . SVG Version: 6.00 Build 0)  -->
<!DOCTYPE svg PUBLIC "-//W3C//DTD SVG 1.1//EN" "http://www.w3.org/Graphics/SVG/1.1/DTD/svg11.dtd">
<svg version="1.1" xmlns="http://www.w3.org/2000/svg" xmlns:xlink="http://www.w3.org/1999/xlink" x="0px" y="0px" width="1094px"
	 height="800px" viewBox="0 0 1094 800" enable-background="new 0 0 1094 800" xml:space="preserve">
<g id="Facebook">
	<circle fill="#2B3990" cx="153.286" cy="135.857" r="115.714"/>
	<path fill="#FFFFFF" d="M135.34,201.409v-75.786h-12.534v-15.356h12.534v-6.558c0-23.629,11.206-35.444,33.618-35.444
		c7.249,0,14.72,1.052,22.412,3.154v16.602c-6.973-2.933-13.227-4.399-18.76-4.399c-8.467,0-12.7,6.392-12.7,19.175v7.471h23.076
		v15.356h-23.076v75.786H135.34z"/>
</g>
<g id="Rss">
	<circle fill="#E05B38" cx="157.088" cy="396.286" r="115.714"/>
	<g>
		<g>
			<path fill-rule="evenodd" clip-rule="evenodd" fill="#FFFFFF" d="M217.179,427.387c-2.635-12.102-4.931-22.738-9.122-32.433
				c-13.262-30.682-36.815-51.028-69.934-61.826c-8.623-2.811-17.968-2.326-27.872-4.054c-1.077,0.727-3.714,0.578-5.574,0.507
				c-1.52,1.182-3.041,2.365-4.561,3.547c-0.793,3.295-1.177,4.93-1.014,8.615c2.084,2.161,3.385,5.045,6.588,6.081h10.135
				c5.552,1.216,11.405,1.331,16.723,3.041c14.109,4.536,28.049,11.386,37.501,20.777c11.038,10.968,19.555,24.302,25.338,40.541
				c2.09,5.867,2.167,12.457,3.547,18.75c1.203,5.487-0.953,9.927,2.027,13.176c2.564,6.99,14.143,3.735,15.71-2.027
				C217.888,440.325,217.942,430.888,217.179,427.387z M106.704,362.52c-0.595,0.409-0.848,0.408-2.027,0.507
				c-1.22,1.212-3.132,2.639-4.561,3.547c-0.836,3.267-2.356,6.749,0,9.629c2.362,6.527,7.753,3.34,15.203,5.068
				c11.818,2.741,21.143,6.534,29.392,12.669c8.327,6.193,15.242,17.49,18.75,28.379c1.02,3.167,1.351,6.562,2.027,9.629
				c0.747,3.39-0.627,7.375,0.507,10.135c1.357,3.302,4.237,3.86,6.588,6.081c5.781-0.005,6.924-1.893,10.135-4.054
				c3.609-13.825-2.123-28.376-6.588-38.514C165.81,382.157,140.617,362.275,106.704,362.52z M116.84,404.075
				c-1.799,1.163-4.045,1.099-6.081,2.027c-5.082,2.316-9.549,8.413-11.149,14.19c-4.132,14.919,10.896,29.87,25.338,26.352
				c11.271-2.745,22.516-16.58,15.203-30.913C136.21,408.006,128.983,403.811,116.84,404.075z"/>
		</g>
	</g>
</g>
<g id="in">
	<circle fill="#1C75BC" cx="409.332" cy="388.575" r="115.714"/>
	<text transform="matrix(1 0 0 1 338.5671 432.7062)" fill="#FFFFFF" font-family="'Montserrat-Bold'" font-size="157.1195">in</text>
</g>
<g id="Vimeo">
	<circle fill="#DA1C5C" cx="682.84" cy="388.575" r="115.714"/>
	<path fill-rule="evenodd" clip-rule="evenodd" fill="#FFFFFF" d="M725.766,329.599c8.188-0.188,15.632-0.055,20.413,3.189
		c8.211,5.573,10.922,24.615,6.379,36.998c-8.469,23.082-31.683,55.328-49.756,68.893c-5.711,4.286-17.602,16.802-29.981,13.396
		c-18.6-5.118-23.754-45.417-29.981-64.427c-2.619-7.994-3.803-19.613-11.482-22.326c-0.826-0.56-1.574-0.57-3.189-0.638
		c-2.404,2.325-6.861,5.291-10.206,6.379c0-0.213,0-0.425,0-0.638c-2.299-1.578-5.421-5.505-6.379-8.293
		c12.706-8.11,21.291-21.555,35.084-28.705c7.549-3.913,18.067-1.807,22.326,4.465c7.726,11.378,8.508,41.23,13.396,56.135
		c1.521,4.637,3.403,15.515,8.931,13.396c7.771-2.172,18.185-21.416,21.051-29.343c1.265-3.499,2.092-9.797,0-12.758
		c-0.954-2.748-2.653-2.748-4.465-4.465c-6.334-0.103-9.937,1.205-14.672,1.914c0-0.213,0-0.425,0-0.638
		c1.263-1.65,0.984-3.539,1.914-5.741c2.307-5.462,6.506-13.545,10.844-17.223c3.386-2.871,7.807-5.927,12.12-7.655
		C720.593,330.519,723.72,330.947,725.766,329.599z"/>
</g>
<g id="Pinterest">
	<circle fill="#BE1E2D" cx="153.286" cy="657.844" r="115.714"/>
	<path fill-rule="evenodd" clip-rule="evenodd" fill="#FFFFFF" d="M147.318,585.87c32.552-0.472,52.406,11.565,60.101,35.062
		c2.172,6.631,2.233,17.896,0.541,24.968c-4.811,20.109-8.808,30.376-24.365,39.843c-6.382,3.884-18.433,8.11-28.697,4.781
		c-5.762-1.869-8.707-6-12.995-9.031c-0.946,10.029-5.671,24.179-9.746,31.874c-1.54,2.908-2.305,7.719-5.956,8.5
		c-5.785-4.713-9.615,1.003-9.205-11.156c1.511-2.534,1.661-13.366,2.707-17c3.512-12.2,6.895-25.826,9.746-38.249
		c0.661-2.881-1.114-4.663-1.624-6.375c-1.225-4.113-1.297-12.899,0-17c1.744-5.515,11.562-19.096,20.575-12.75
		c6.803,2.176,8.242,11.567,5.956,19.656c-3.192,11.292-13.726,31.579,1.624,37.187c11.332,4.14,19.508-5.501,23.282-11.156
		c12.681-19.001,12.904-52.077-8.663-61.624c-5.39-2.386-15.036-4.268-22.199-2.656c-3.455,0.777-5.67,0.101-8.663,1.062
		c-15.613,5.013-24.7,15.411-28.697,31.874c-1.715,7.064,0.379,16.182,3.249,20.718c0.915,1.446,3.693,3.238,3.79,5.312
		c-0.902,3.364-1.805,6.729-2.707,10.094c-1.215,0.312-1.438,0.397-2.166,1.062c-3.089-1.224-6.144-2.41-8.663-4.25
		c-9.341-6.821-14.063-28.403-8.663-43.03c4.471-12.112,13.39-22.9,23.824-29.218c5.116-3.098,11.721-5.13,17.868-6.906
		C140.82,586.933,144.07,586.402,147.318,585.87z"/>
</g>
<g id="Github">
	<circle fill="#1C75BC" cx="935.058" cy="388.575" r="115.714"/>
	<path fill-rule="evenodd" clip-rule="evenodd" fill="#FFFFFF" d="M945.628,415.949c-0.056,7.693-1.428,23.088,0.42,29.398
		c0.89,3.039,3.484,3.737,3.78,7.56c-0.528,0.273-0.87,0.458-1.26,0.84c-15.333-3.133-11.99-21.177-11.759-39.058
		c-0.7,0-1.4,0-2.1,0c0.267,15.516,4.394,38.794-12.599,38.638c-0.265-0.737-0.081-0.408-0.42-0.84
		c0.786-2.718,3.039-3.783,3.78-6.72c0.14-10.078,0.28-20.16,0.42-30.238c-0.14,0-0.28,0-0.42,0
		c-2.938,4.813-2.019,14.313-2.52,21.419c-0.076,1.081,0.537,5.588-0.42,7.14c-1.462,4.409-8.043,6.69-13.859,5.46
		c-0.14-0.42-0.28-0.84-0.42-1.26c7.931-5.057,6.905-10.394,6.72-23.099c-0.28,0-0.56,0-0.84,0c-1.796,1.148-7.016,0.829-8.819,0.42
		c-2.886-0.655-4.801-0.217-7.14-1.26c-6.606-2.947-7.34-9.984-11.339-15.539c-1.983-2.754-7.09-3.943-7.56-7.979
		c0.28,0,0.56,0,0.84,0c7.542-4.953,15.008,10.432,18.899,13.019c4.48,2.979,11.758,1.045,16.379,0
		c1.399-4.281,2.474-7.472,5.88-9.659c-0.429-0.338-0.115-0.149-0.84-0.42c-2.053-1.237-5.467-0.559-7.979-1.26
		c-5.454-1.521-11.233-3.428-15.539-6.3c-14.082-9.391-20.764-41.196-5.88-55.017c-0.651-6.516-4.164-22.779,5.04-22.679
		c2.799,0.84,5.6,1.68,8.399,2.52c3.836,1.666,6.98,5.524,11.339,6.3c3.233-2.243,21.232-3.911,27.718-2.52
		c1.963,0.421,9.551,2.251,11.339,1.68c1.078-0.344,2.412-1.943,3.36-2.52c4.741-2.884,11.474-6.105,18.059-5.46
		c0.691,2.75,1.802,5.957,2.52,9.239c0.85,3.885-2.158,8.934-0.42,11.759c0.625,1.763,2.002,2.443,2.94,3.78
		c1.792,2.555,3.607,6.158,4.62,9.239c5.464,16.619-1.941,37.834-11.339,44.097c-4.345,2.896-10.303,4.395-15.959,5.88
		c-2.395,0.629-7.164-0.116-8.399,1.68c8.289,2.978,6.719,18.508,6.72,29.818c0,2.66,0,5.32,0,7.979
		c1.082,3.327,5.526,3.643,6.3,7.14c-0.42,0.14-0.84,0.28-1.26,0.42c-3.615,2.513-11.42-2.268-12.179-4.62
		c-1.686-1.919-1.26-6.048-1.26-9.659c0-6.936,0.444-14.621-1.68-19.319C946.468,415.949,946.048,415.949,945.628,415.949z"/>
</g>
<g id="Cloud">
	<circle fill="#006838" cx="409.332" cy="657.844" r="115.714"/>
	<path fill-rule="evenodd" clip-rule="evenodd" fill="#FFFFFF" d="M345.605,673.494c0.099-3.031,0.757-6.9,2.198-8.794
		c3.4-11.338,15.139-8.91,27.115-8.061c0-0.488,0-0.977,0-1.466c-2.908-4.496-1.636-16.887,0-21.252
		c4.637-12.371,17.388-26.975,37.374-20.519c8.572,2.769,16.449,9.599,19.786,17.588c1.938,4.639,1.221,15.646,5.13,18.321
		c4.436-6.929,12.926-13.903,21.985-16.122c23.001-5.635,39.208,22.825,27.847,41.038c-8.01,12.842-23.544,12.459-44.702,12.458
		c-23.692,0-47.392,0-71.084,0c-12.112,0-26.822,0.806-36.641-1.466c-2.895-5.676-1.709-7.719,2.198-11.725
		C339.742,673.494,342.674,673.494,345.605,673.494z"/>
</g>
<g id="Flickr">
	<circle fill="#231F20" cx="682.84" cy="657.844" r="115.714"/>
	<g>
		<g>
			<path fill-rule="evenodd" clip-rule="evenodd" fill="#FFFFFF" d="M634.404,619.676c-2.157,1.393-5.223,1.05-7.794,2.125
				c-9.891,4.136-18.692,14.034-21.964,24.797c-7.619,25.059,17.081,52.636,42.511,46.76c18.634-4.306,39.014-25.417,28.341-51.01
				C669.3,627.485,656.344,619.265,634.404,619.676z M754.853,642.348c-6.198-14.863-19.154-23.082-41.094-22.671
				c-2.157,1.393-5.223,1.05-7.794,2.125c-9.891,4.136-18.692,14.034-21.964,24.797c-7.619,25.059,17.081,52.636,42.511,46.76
				C745.146,689.052,765.526,667.941,754.853,642.348z"/>
		</g>
	</g>
</g>
<g id="Email">
	<circle fill="#F9ED32" cx="935.058" cy="656.91" r="115.714"/>
	<g>
		<g>
			<path fill-rule="evenodd" clip-rule="evenodd" fill="#FFFFFF" d="M1002.524,610.833c-1.774-0.08-0.901-0.438-1.858,0h-89.788
				c-10.13,0-32.288-1.999-40.25,0.619c0.083,32.698,1.822,61.172,1.858,92.265h129.419c-0.08-3.053-0.66-8.576,0.619-10.527
				V610.833z M886.729,618.264h97.219c-6.063,12.639-23.319,27.033-34.058,37.773c-3.844,3.845-8.234,11.099-13.623,13.004
				c-16.511-16.511-33.027-33.027-49.538-49.538V618.264z M881.775,688.236c-2.032-0.445-1.443-0.633-3.096-1.238v-60.065
				c4.189,1.498,6.975,6.356,9.908,9.288c7.18,7.18,14.424,13.902,21.054,21.673C907.912,666.262,887.124,680.226,881.775,688.236z
				 M984.567,697.525h-73.069c-8.979-0.001-22.143,1.578-24.769-3.096c9.7-9.907,19.403-19.816,29.104-29.723
				c6.192,6.192,12.385,12.385,18.577,18.577c7.113-2.568,13.418-13.699,19.815-17.958c0.206-0.206,0.413-0.413,0.619-0.619
				c10.113,10.319,20.229,20.642,30.342,30.961C984.979,696.286,984.773,696.906,984.567,697.525z M993.236,688.236l-0.619,0.619
				l-19.815-19.815c-3.106-4.112-6.905-9.504-11.146-12.385c1.22-3.383,4.492-5.111,6.812-7.431
				c7.636-7.843,15.275-15.688,22.911-23.531h1.238c-0.582,2.145,0.511,3.157,0.619,6.192c0.206,10.526,0.413,21.055,0.619,31.581
				c-0.001,4.227-1.204,12.528,0.619,15.481C994.604,682.315,995.004,686.672,993.236,688.236z"/>
		</g>
	</g>
</g>
<g id="Youtube">
	<circle fill="#ED1C24" cx="954.286" cy="134.837" r="115.714"/>
	<g>
		<g>
			<g>
				<path fill="#FFFFFF" d="M1016.56,113.916c0-1.1,0.06-2.898,0.133-3.996c0,0,1.026-15.332-0.884-21.524
					c-1.475-4.783-4.597-9.12-8.257-11.76c-6.737-4.859-28.526-4.075-28.526-4.075c-1.099,0.04-2.899,0.072-3.999,0.072h-60.803
					c-1.1,0-2.881,0.184-3.958,0.408l-2.089,0.435c-1.077,0.224-2.726,0.877-3.664,1.451c0,0-7.285,4.453-9.803,8.715
					c-3.401,5.757-2.82,22.771-2.82,22.771c0.037,1.099,0.068,2.899,0.068,3.999v49.294c0,1.1-0.025,2.9-0.055,3.999
					c0,0-0.409,14.878,1.806,20.019c6.351,14.735,38.285,13.112,38.285,13.112c1.099-0.056,2.897-0.102,3.997-0.102h36.033
					c1.1,0,2.896,0.083,3.992,0.184c0,0,23.654,2.18,33.287-5.438c7.656-6.054,7.287-29.526,7.287-29.526
					c-0.017-1.1-0.031-2.9-0.031-4V113.916z M977.278,141.19c-9.757,5.337-19.517,10.676-29.274,16.013
					c-3.18,1.733-9.386,4.053-9.386,4.053c-1.03,0.385-1.961-0.195-2.068-1.29c0,0-0.806-8.255-0.806-13.022
					c0-11.091,0.465-37.533,0.465-37.533c0.019-1.1,0.185-2.112,0.369-2.25s1.487-0.129,2.489,0.324c0,0,7.641,3.457,11.439,5.681
					c11.508,6.254,32.771,17.81,32.771,17.81c0.966,0.525,1.317,1.74,0.778,2.699C984.055,133.676,980.919,139.264,977.278,141.19z"
					/>
				<path fill="#FFFFFF" d="M1016.56,113.916c0-1.1,0.06-2.898,0.133-3.996c0,0,1.026-15.332-0.884-21.524
					c-1.475-4.783-4.597-9.12-8.257-11.76c-6.737-4.859-28.526-4.075-28.526-4.075c-1.099,0.04-2.899,0.072-3.999,0.072h-60.803
					c-1.1,0-2.881,0.184-3.958,0.408l-2.089,0.435c-1.077,0.224-2.726,0.877-3.664,1.451c0,0-7.285,4.453-9.803,8.715
					c-3.401,5.757-2.82,22.771-2.82,22.771c0.037,1.099,0.068,2.899,0.068,3.999v49.294c0,1.1-0.025,2.9-0.055,3.999
					c0,0-0.409,14.878,1.806,20.019c6.351,14.735,38.285,13.112,38.285,13.112c1.099-0.056,2.897-0.102,3.997-0.102h36.033
					c1.1,0,2.896,0.083,3.992,0.184c0,0,23.654,2.18,33.287-5.438c7.656-6.054,7.287-29.526,7.287-29.526
					c-0.017-1.1-0.031-2.9-0.031-4V113.916z M977.278,141.19c-9.757,5.337-19.517,10.676-29.274,16.013
					c-3.18,1.733-9.386,4.053-9.386,4.053c-1.03,0.385-1.961-0.195-2.068-1.29c0,0-0.806-8.255-0.806-13.022
					c0-11.091,0.465-37.533,0.465-37.533c0.019-1.1,0.185-2.112,0.369-2.25s1.487-0.129,2.489,0.324c0,0,7.641,3.457,11.439,5.681
					c11.508,6.254,32.771,17.81,32.771,17.81c0.966,0.525,1.317,1.74,0.778,2.699C984.055,133.676,980.919,139.264,977.278,141.19z"
					/>
			</g>
		</g>
	</g>
</g>
<g id="Twitter">
	<circle fill="#27AAE1" cx="406.714" cy="134.837" r="115.714"/>
	<path fill-rule="evenodd" clip-rule="evenodd" fill="#FFFFFF" d="M410.959,116.158c0.163-2.948-0.115-7.105,1.009-10.39
		c3.644-10.646,10.755-17.276,20.775-19.569c5.264-1.205,14.16-1.09,19.585,1.989c4.163,2.363,7.495,5.422,10.259,8.853
		c4.167,0.532,10.891-1.248,14.193-2.473c1.496-0.552,2.993-1.105,4.489-1.657c-0.024,0.174-0.047,0.349-0.071,0.523
		c-3.58,6.342-7.952,10.295-14.06,13.284c4.231-0.135,8.484-0.188,12.279-1.133c1.288-0.321,2.681-0.933,4.138-1.038
		c-0.006,0.044-0.012,0.087-0.018,0.131c-3.043,4.21-11.026,10.879-15.952,12.495c-0.873,12.217-5.369,22.213-9.378,30.842
		c-7.658,16.483-23.662,30.434-39.102,36.806c-6.313,2.605-13.144,4.004-20.334,5.505c-15.996,3.338-41.941-3.453-52.74-11.015
		c-2.498-1.749-10.059-5.438-10.925-7.877c0.654,0.089,1.309,0.177,1.963,0.266c0.768,0.911,10.081,1.692,11.776,1.597
		c11.669-0.654,20.734-2.928,29.039-7.789c0.006-0.044,0.012-0.087,0.018-0.131c-11.132-0.58-23.462-13.835-23.395-23.026
		c0.349,0.047,0.698,0.095,1.047,0.142c2.844,1.395,8.71,1.93,11.455,1.02c-2.135-0.372-3.802-1.651-5.247-2.577
		c-8.838-5.659-15.165-14.536-13.218-28.309c2.438,1.012,8.28,5.784,11.987,4.956c-0.131-0.018-0.262-0.035-0.393-0.053
		c-1.494-1.757-2.988-3.514-4.482-5.271c-3.357-6.071-6.643-14.974-3.034-24.796c1.164-3.169,3.251-5.511,4.311-8.21
		c0.174,0.024,0.349,0.047,0.523,0.071C365.301,94.533,387.456,112.83,410.959,116.158z"/>
</g>
<g id="g_x2B_">
	<g>
		<defs>
			<circle id="SVGID_1_" cx="682.84" cy="134.837" r="115.714"/>
		</defs>
		<use xlink:href="#SVGID_1_"  overflow="visible" fill="#231F20"/>
		<clipPath id="SVGID_2_">
			<use xlink:href="#SVGID_1_"  overflow="visible"/>
		</clipPath>
		<g clip-path="url(#SVGID_2_)">
			<g>
				<g>
					<path fill-rule="evenodd" clip-rule="evenodd" fill="#FFFFFF" d="M757.475,71.042V36.306h-16v34.736h-32V88.41h32v34.736h16
						V88.41h32V71.042H757.475z M580.578,246.065c3.404,1.543,7.042,2.801,9.897,5.08
						C584.062,243.81,582.193,243.994,580.578,246.065z M598.475,47.145c-13.965,4.491-22.34,12.986-33,20c0,26.331,0,79,0,79
						s14.187,9.417,21,12c4.191,1.589,16.628,5.139,21,3h6c-3.42,13.582-4.049,27.026,7,34v1c-25.846,0.165-37.677,2.986-55,10
						c0,14.999-19.759,38.429,0,45c11.269,3.748,12.961-2.33,15.103-5.08c-1.82-0.825-3.577-1.727-5.103-2.92
						c-3.575-2.794-5.057-8.502-8-12c1.766-18.63,43.591-31.686,67-24c9.305,3.055,18.188,11.91,25,18
						c6.051,5.41,14.351,14.676,11,26h24c0.157-37.178-13.188-46.715-34-62l-17-17c-1.66-29.761,47.123-34.312,37-76
						c-0.779-3.208-1.541-8.487-3-12c-3.871-9.319-10.612-14.361-17-21h-1v-1c25.433,0.375,23.836-5.22,36-17v-1
						C666.254,44.244,622.122,39.541,598.475,47.145z M631.475,149.145c-8.532,2.952-18.284-0.282-24-3
						c-15.024-7.144-36.161-31.072-30-58c2.603-11.378,7.43-22.593,16-28c2.479-1.564,5.829-1.391,8-3
						c28.247-0.595,40.615,18.168,47,39C655.342,118.551,647.965,143.44,631.475,149.145z"/>
				</g>
			</g>
		</g>
	</g>
</g>
</svg>
